<svg width="26" height="29" viewBox="0 0 26 29" fill="none" xmlns="http://www.w3.org/2000/svg">
<path d="M10.3895 12.2844C9.57651 12.2844 8.93601 12.9969 8.93601 13.8669C8.93601 14.7339 9.59151 15.4494 10.3895 15.4494C11.201 15.4494 11.8415 14.7339 11.8415 13.8669C11.858 12.9954 11.201 12.2844 10.3895 12.2844ZM15.5915 12.2844C14.7785 12.2844 14.138 12.9969 14.138 13.8669C14.138 14.7339 14.7935 15.4494 15.5915 15.4494C16.403 15.4494 17.0435 14.7339 17.0435 13.8669C17.042 12.9954 16.403 12.2844 15.5915 12.2844Z" fill="black"/>
<path d="M22.517 0.327881H3.42051C3.036 0.328865 2.65545 0.405574 2.30058 0.553629C1.94572 0.701684 1.62349 0.918186 1.35229 1.19077C1.0811 1.46336 0.866253 1.78669 0.720018 2.14231C0.573782 2.49793 0.499023 2.87887 0.50001 3.26338V22.5294C0.50001 24.1539 1.81101 25.4649 3.42051 25.4649H19.58L18.8225 22.8264L20.648 24.5229L22.3715 26.1189L25.4375 28.8279V3.26338C25.4385 2.87887 25.3637 2.49793 25.2175 2.14231C25.0713 1.78669 24.8564 1.46336 24.5852 1.19077C24.314 0.918186 23.9918 0.701684 23.6369 0.553629C23.2821 0.405574 22.9015 0.328865 22.517 0.327881ZM17.015 18.9384C17.015 18.9384 16.502 18.3264 16.076 17.7819C17.942 17.2539 18.6545 16.0869 18.6545 16.0869C18.0695 16.4709 17.5145 16.7439 17.015 16.9299C15.1965 17.6909 13.194 17.8986 11.258 17.5269C10.5427 17.3864 9.84173 17.1805 9.16401 16.9119C8.80658 16.7761 8.45922 16.6152 8.12451 16.4304C8.08101 16.3989 8.03901 16.3869 7.99701 16.3584C7.97454 16.3477 7.9546 16.3324 7.93851 16.3134C7.68201 16.1724 7.53951 16.0734 7.53951 16.0734C7.53951 16.0734 8.22351 17.2134 10.034 17.7549C9.60651 18.2949 9.07851 18.9384 9.07851 18.9384C5.93001 18.8379 4.73451 16.7724 4.73451 16.7724C4.73451 12.1839 6.78651 8.46538 6.78651 8.46538C8.83851 6.92488 10.79 6.96838 10.79 6.96838L10.9325 7.13938C8.36751 7.88188 7.18401 9.00688 7.18401 9.00688C7.18401 9.00688 7.49901 8.83588 8.02551 8.59438C9.54951 7.92538 10.76 7.73938 11.2595 7.69588C11.345 7.68238 11.417 7.66738 11.5025 7.66738C13.9733 7.33441 16.4857 7.80398 18.6695 9.00688C18.6695 9.00688 17.543 7.93888 15.1205 7.19788L15.32 6.96988C15.32 6.96988 17.273 6.92638 19.3235 8.46688C19.3235 8.46688 21.3755 12.1854 21.3755 16.7739C21.3755 16.7739 20.165 18.8379 17.015 18.9384Z" fill="black"/>
</svg>
